<?xml version="1.0" encoding="utf-8"?>
<!-- Generator: Adobe Illustrator 27.5.0, SVG Export Plug-In . SVG Version: 6.00 Build 0)  -->
<svg version="1.1" xmlns="http://www.w3.org/2000/svg" xmlns:xlink="http://www.w3.org/1999/xlink" x="0px" y="0px"
	 viewBox="0 0 500 500" style="enable-background:new 0 0 500 500;" xml:space="preserve">
<g id="BACKGROUND">
	<rect style="fill:#2EB7C4;" width="500" height="500"/>
	<g>
		<path style="fill:#30BFCC;" d="M325.868,51.658c0,1.622-1.315,2.937-2.938,2.937c-1.622,0-2.937-1.315-2.937-2.937
			c0-1.622,1.315-2.938,2.937-2.938C324.553,48.721,325.868,50.036,325.868,51.658z"/>
		<path style="fill:#30BFCC;" d="M232.66,22.843c0,1.622-1.315,2.938-2.938,2.938s-2.937-1.315-2.937-2.938s1.315-2.938,2.937-2.938
			S232.66,21.22,232.66,22.843z"/>
		<path style="fill:#30BFCC;" d="M102.812,25.78c0,1.622-1.315,2.937-2.937,2.937c-1.622,0-2.938-1.315-2.938-2.937
			c0-1.622,1.315-2.938,2.938-2.938C101.497,22.843,102.812,24.158,102.812,25.78z"/>
		<path style="fill:#30BFCC;" d="M24.371,63.508c0,1.622-1.315,2.938-2.937,2.938c-1.622,0-2.938-1.315-2.938-2.938
			s1.315-2.937,2.938-2.937C23.056,60.571,24.371,61.886,24.371,63.508z"/>
		<path style="fill:#30BFCC;" d="M347.218,86.905c0,1.622-1.315,2.937-2.938,2.937s-2.937-1.315-2.937-2.937
			s1.315-2.938,2.937-2.938S347.218,85.283,347.218,86.905z"/>
		<path style="fill:#30BFCC;" d="M450.166,14.033c0,1.622-1.315,2.937-2.937,2.937c-1.622,0-2.937-1.315-2.937-2.937
			c0-1.622,1.315-2.938,2.937-2.938C448.851,11.095,450.166,12.41,450.166,14.033z"/>
		<path style="fill:#30BFCC;" d="M477.937,33.492c0,1.622-1.315,2.937-2.937,2.937c-1.622,0-2.938-1.315-2.938-2.937
			c0-1.622,1.315-2.937,2.938-2.937C476.622,30.555,477.937,31.87,477.937,33.492z"/>
		<path style="fill:#30BFCC;" d="M488.587,87.897c0,1.622-1.315,2.937-2.937,2.937c-1.622,0-2.938-1.315-2.938-2.937
			s1.315-2.938,2.938-2.938C487.272,84.96,488.587,86.275,488.587,87.897z"/>
		<path style="fill:#30BFCC;" d="M477.937,119.899c0,1.622-1.315,2.938-2.937,2.938c-1.622,0-2.938-1.315-2.938-2.938
			c0-1.622,1.315-2.937,2.938-2.937C476.622,116.962,477.937,118.277,477.937,119.899z"/>
		<path style="fill:#30BFCC;" d="M406.48,151.512c0,1.622-1.315,2.938-2.937,2.938c-1.622,0-2.938-1.315-2.938-2.938
			s1.315-2.937,2.938-2.937C405.165,148.574,406.48,149.889,406.48,151.512z"/>
		<path style="fill:#30BFCC;" d="M410.083,335.949c0,1.622-1.315,2.938-2.937,2.938s-2.938-1.315-2.938-2.938
			c0-1.622,1.315-2.937,2.938-2.937S410.083,334.326,410.083,335.949z"/>
		<path style="fill:#30BFCC;" d="M273.29,392.477c0,1.622-1.315,2.937-2.938,2.937c-1.622,0-2.937-1.315-2.937-2.937
			c0-1.622,1.315-2.938,2.937-2.938C271.975,389.539,273.29,390.855,273.29,392.477z"/>
		<path style="fill:#30BFCC;" d="M353.854,474.396c0,1.622-1.315,2.938-2.937,2.938c-1.622,0-2.937-1.315-2.937-2.938
			c0-1.622,1.315-2.938,2.937-2.938C352.539,471.458,353.854,472.773,353.854,474.396z"/>
		<path style="fill:#30BFCC;" d="M73.665,326.024c0,1.622-1.315,2.938-2.937,2.938s-2.938-1.315-2.938-2.938
			c0-1.622,1.315-2.937,2.938-2.937S73.665,324.401,73.665,326.024z"/>
		<path style="fill:#30BFCC;" d="M45.42,476.485c0,1.622-1.315,2.938-2.938,2.938c-1.622,0-2.937-1.315-2.937-2.938
			c0-1.622,1.315-2.938,2.937-2.938C44.104,473.548,45.42,474.863,45.42,476.485z"/>
		<path style="fill:#30BFCC;" d="M382.737,466.205c0,1.622-1.315,2.938-2.937,2.938c-1.622,0-2.938-1.315-2.938-2.938
			c0-1.622,1.315-2.937,2.938-2.937C381.422,463.268,382.737,464.583,382.737,466.205z"/>
		<path style="fill:#30BFCC;" d="M448.092,474.396c0,1.622-1.315,2.938-2.937,2.938c-1.622,0-2.938-1.315-2.938-2.938
			c0-1.622,1.315-2.938,2.938-2.938C446.777,471.458,448.092,472.773,448.092,474.396z"/>
		<path style="fill:#30BFCC;" d="M30.812,392.846c0,1.622-1.315,2.938-2.938,2.938s-2.937-1.315-2.937-2.938
			c0-1.622,1.315-2.937,2.937-2.937S30.812,391.224,30.812,392.846z"/>
		<path style="fill:#30BFCC;" d="M182.543,421.703c0,1.622-1.315,2.938-2.938,2.938s-2.937-1.315-2.937-2.938
			c0-1.622,1.315-2.937,2.937-2.937S182.543,420.08,182.543,421.703z"/>
		<path style="fill:#30BFCC;" d="M184.035,454.311c0,1.622-1.315,2.937-2.937,2.937c-1.622,0-2.938-1.315-2.938-2.937
			c0-1.622,1.315-2.938,2.938-2.938C182.72,451.373,184.035,452.688,184.035,454.311z"/>
		<path style="fill:#30BFCC;" d="M97.488,454.311c0,1.622-1.315,2.937-2.937,2.937s-2.938-1.315-2.938-2.937
			c0-1.622,1.315-2.938,2.938-2.938S97.488,452.688,97.488,454.311z"/>
		<path style="fill:#30BFCC;" d="M107.648,143.454c0,1.622-1.315,2.938-2.938,2.938s-2.937-1.315-2.937-2.938
			s1.315-2.937,2.937-2.937S107.648,141.831,107.648,143.454z"/>
		<path style="fill:#30BFCC;" d="M24.371,256.719c0,1.622-1.315,2.938-2.937,2.938c-1.622,0-2.938-1.315-2.938-2.938
			c0-1.622,1.315-2.937,2.938-2.937C23.056,253.782,24.371,255.097,24.371,256.719z"/>
		<circle style="fill:#30BFCC;" cx="322.931" cy="77.91" r="5.325"/>
		<circle style="fill:#30BFCC;" cx="398.392" cy="28.167" r="5.325"/>
		<path style="fill:#30BFCC;" d="M480.325,157.761c0,2.941-2.384,5.325-5.325,5.325c-2.941,0-5.325-2.384-5.325-5.325
			c0-2.941,2.384-5.325,5.325-5.325C477.941,152.436,480.325,154.82,480.325,157.761z"/>
		<circle style="fill:#30BFCC;" cx="273.934" cy="22.843" r="5.325"/>
		<path style="fill:#30BFCC;" d="M136.458,16.97c0,2.941-2.384,5.325-5.325,5.325c-2.941,0-5.325-2.384-5.325-5.325
			s2.384-5.325,5.325-5.325C134.074,11.645,136.458,14.029,136.458,16.97z"/>
		<path style="fill:#30BFCC;" d="M47.334,19.905c0,2.941-2.384,5.325-5.325,5.325c-2.941,0-5.325-2.384-5.325-5.325
			c0-2.941,2.384-5.325,5.325-5.325C44.95,14.58,47.334,16.964,47.334,19.905z"/>
		<path style="fill:#30BFCC;" d="M26.758,119.899c0,2.941-2.384,5.325-5.325,5.325s-5.325-2.384-5.325-5.325
			c0-2.941,2.384-5.325,5.325-5.325S26.758,116.958,26.758,119.899z"/>
		<circle style="fill:#30BFCC;" cx="480.325" cy="317.815" r="5.325"/>
		<path style="fill:#30BFCC;" d="M226.141,382.819c0,2.941-2.384,5.325-5.325,5.325c-2.941,0-5.325-2.384-5.325-5.325
			s2.384-5.325,5.325-5.325C223.757,377.494,226.141,379.878,226.141,382.819z"/>
		<circle style="fill:#30BFCC;" cx="315.049" cy="426.29" r="5.325"/>
		<path style="fill:#30BFCC;" d="M411.258,483.243c0,2.941-2.384,5.325-5.325,5.325c-2.941,0-5.325-2.384-5.325-5.325
			s2.384-5.325,5.325-5.325C408.874,477.918,411.258,480.302,411.258,483.243z"/>
		<path style="fill:#30BFCC;" d="M466.914,463.809c0,2.941-2.384,5.325-5.325,5.325s-5.325-2.384-5.325-5.325
			s2.384-5.325,5.325-5.325S466.914,460.868,466.914,463.809z"/>
		<circle style="fill:#30BFCC;" cx="480.325" cy="395.114" r="5.325"/>
		<path style="fill:#30BFCC;" d="M223.705,433.876c0,2.941-2.384,5.325-5.325,5.325s-5.325-2.384-5.325-5.325
			s2.384-5.325,5.325-5.325S223.705,430.936,223.705,433.876z"/>
		<circle style="fill:#30BFCC;" cx="137.359" cy="472.967" r="5.325"/>
		<path style="fill:#30BFCC;" d="M105.2,344.4c0,2.941-2.384,5.325-5.325,5.325c-2.941,0-5.325-2.384-5.325-5.325
			s2.384-5.325,5.325-5.325C102.816,339.076,105.2,341.46,105.2,344.4z"/>
		<path style="fill:#30BFCC;" d="M42.009,432.966c0,2.941-2.384,5.325-5.325,5.325s-5.325-2.384-5.325-5.325
			c0-2.941,2.384-5.325,5.325-5.325S42.009,430.025,42.009,432.966z"/>
		<circle style="fill:#30BFCC;" cx="47.807" cy="142.42" r="5.325"/>
		<circle style="fill:#30BFCC;" cx="73.778" cy="179.15" r="5.325"/>
		<circle style="fill:#30BFCC;" cx="185.511" cy="22.843" r="5.325"/>
		<circle style="fill:#30BFCC;" cx="344.281" cy="22.843" r="8.81"/>
		
			<ellipse transform="matrix(0.7071 -0.7071 0.7071 0.7071 5.1971 354.7827)" style="fill:#30BFCC;" cx="430.859" cy="171.118" rx="8.81" ry="8.81"/>
		
			<ellipse transform="matrix(0.1597 -0.9872 0.9872 0.1597 65.9331 699.9744)" style="fill:#30BFCC;" cx="444.142" cy="311.257" rx="8.81" ry="8.81"/>
		
			<ellipse transform="matrix(0.2116 -0.9774 0.9774 0.2116 -218.2497 605.5555)" style="fill:#30BFCC;" cx="266.214" cy="438.054" rx="8.81" ry="8.81"/>
		
			<ellipse transform="matrix(0.2684 -0.9633 0.9633 0.2684 -151.0355 573.7324)" style="fill:#30BFCC;" cx="302.212" cy="386.304" rx="8.81" ry="8.81"/>
		
			<ellipse transform="matrix(0.2306 -0.973 0.973 0.2306 -203.3431 551.5076)" style="fill:#30BFCC;" cx="247.079" cy="404.339" rx="8.81" ry="8.81"/>
		
			<ellipse transform="matrix(0.2306 -0.973 0.973 0.2306 -303.4509 297.9478)" style="fill:#30BFCC;" cx="36.684" cy="340.864" rx="8.81" ry="8.81"/>
		
			<ellipse transform="matrix(0.7071 -0.7071 0.7071 0.7071 -121.5854 75.4169)" style="fill:#30BFCC;" cx="30.244" cy="184.475" rx="8.81" ry="8.81"/>
		
			<ellipse transform="matrix(0.1597 -0.9872 0.9872 0.1597 79.4637 212.5832)" style="fill:#30BFCC;" cx="164.606" cy="59.613" rx="8.81" ry="8.81"/>
	</g>
</g>
<g id="OBJECTS">
	
		<line style="fill:none;stroke:#FFFFFF;stroke-width:3;stroke-linecap:round;stroke-linejoin:round;stroke-miterlimit:10;" x1="250.16" y1="152.436" x2="250.16" y2="79.95"/>
	
		<line style="fill:none;stroke:#FFFFFF;stroke-width:3;stroke-linecap:round;stroke-linejoin:round;stroke-miterlimit:10;" x1="100.321" y1="245.485" x2="145.791" y2="245.485"/>
	
		<line style="fill:none;stroke:#FFFFFF;stroke-width:3;stroke-linecap:round;stroke-linejoin:round;stroke-miterlimit:10;" x1="368.414" y1="225.051" x2="413.884" y2="225.051"/>
	<path style="fill:none;stroke:#FFFFFF;stroke-width:3;stroke-linecap:round;stroke-linejoin:round;stroke-miterlimit:10;" d="
		M291.634,146.391v-33.684c0-5.274,4.275-9.549,9.549-9.549h65.245"/>
	<path style="fill:none;stroke:#FFFFFF;stroke-width:3;stroke-linecap:round;stroke-linejoin:round;stroke-miterlimit:10;" d="
		M156.039,385.185h15.509c5.274,0,9.549-4.275,9.549-9.549v-65.245"/>
	<path style="fill:none;stroke:#FFFFFF;stroke-width:3;stroke-linecap:round;stroke-linejoin:round;stroke-miterlimit:10;" d="
		M182.132,152.436V86.383c0-5.274-4.275-9.549-9.549-9.549h-34.252"/>
	<path style="fill:none;stroke:#FFFFFF;stroke-width:3;stroke-linecap:round;stroke-linejoin:round;stroke-miterlimit:10;" d="
		M315.049,320.107v39.037c0,5.274,4.275,9.549,9.549,9.549h34.252"/>
	<g>
		<path style="fill:#006C7E;" d="M372.048,342.025H128.272c-7.022,0-12.715-5.693-12.715-12.715V180.227
			c0-7.022,5.693-12.715,12.715-12.715h243.776c7.022,0,12.715,5.693,12.715,12.715V329.31
			C384.762,336.332,379.07,342.025,372.048,342.025z"/>
		<path style="fill:#FFFFFF;" d="M370.836,315.594H129.484c-3.55,0-6.428-2.878-6.428-6.427V182.758c0-3.55,2.878-6.427,6.428-6.427
			h241.352c3.55,0,6.428,2.878,6.428,6.427v126.408C377.264,312.716,374.386,315.594,370.836,315.594z"/>
		<path style="fill:#00515E;" d="M115.557,321.342v7.968c0,7.022,5.693,12.715,12.715,12.715h243.775
			c7.022,0,12.715-5.693,12.715-12.715v-7.968H115.557z"/>
		<path style="fill:#FFFFFF;" d="M377.264,331.683c0,2.444-1.981,4.425-4.425,4.425c-2.444,0-4.425-1.981-4.425-4.425
			s1.981-4.425,4.425-4.425C375.283,327.258,377.264,329.239,377.264,331.683z"/>
		<circle style="fill:#2EB7C4;" cx="358.105" cy="331.683" r="2.133"/>
		<circle style="fill:#2EB7C4;" cx="339.463" cy="331.683" r="2.133"/>
		<circle style="fill:#2EB7C4;" cx="348.784" cy="331.683" r="2.133"/>
		<path style="fill:#00515E;" d="M228.349,342.025c0,0,0.084,13.61-17.106,25.725h77.833
			c-17.189-12.115-17.106-25.725-17.106-25.725H228.349z"/>
		<path style="fill:#00353D;" d="M250,349.286c8.349,0,16.455,0.463,24.201,1.331c-2.247-5.062-2.23-8.593-2.23-8.593h-43.622
			c0,0,0.017,3.514-2.214,8.556C233.78,349.737,241.771,349.286,250,349.286z"/>
		<path style="fill:#006C7E;" d="M294.302,371.71h-88.284c-2.178,0-3.961-1.782-3.961-3.961l0,0c0-2.178,1.782-3.961,3.961-3.961
			h88.284c2.178,0,3.961,1.782,3.961,3.961l0,0C298.262,369.928,296.48,371.71,294.302,371.71z"/>
		<g>
			<rect x="156.039" y="132.138" style="fill:#9AD1E3;" width="188.241" height="183.456"/>
			<path style="fill:#63A9BF;" d="M252.187,268.161h-73.773c-3.6,0-6.546-2.946-6.546-6.546v-0.257c0-3.6,2.946-6.546,6.546-6.546
				h73.773c3.6,0,6.546,2.946,6.546,6.546v0.257C258.733,265.215,255.787,268.161,252.187,268.161z"/>
			<path style="fill:#FFFFFF;" d="M252.187,288.362h-73.773c-3.6,0-6.546-2.946-6.546-6.546v-0.257c0-3.6,2.946-6.546,6.546-6.546
				h73.773c3.6,0,6.546,2.946,6.546,6.546v0.257C258.733,285.416,255.787,288.362,252.187,288.362z"/>
			<path style="fill:#FFFFFF;" d="M327.291,245.962H173.029c-0.639,0-1.161-0.523-1.161-1.161v-33.878
				c0-0.639,0.522-1.161,1.161-1.161h154.262c0.639,0,1.161,0.523,1.161,1.161v33.878
				C328.452,245.439,327.93,245.962,327.291,245.962z"/>
			<rect x="156.039" y="151.397" style="fill:#63A9BF;" width="188.241" height="16.116"/>
			<rect x="171.868" y="296.864" style="fill:#63A9BF;" width="156.584" height="18.729"/>
			<rect x="156.039" y="173.762" style="fill:#63A9BF;" width="188.241" height="26.714"/>
			
				<text transform="matrix(1 0 0 1 186.73 194.1504)" style="fill:#FFFFFF; font-family:'Quicksand-Regular'; font-size:18.1327px;">Link Building</text>
			<rect x="156.039" y="132.138" style="fill:#006C7E;" width="188.241" height="13.046"/>
			<path style="fill:#FF5252;" d="M339.71,138.661c0,1.525-1.236,2.761-2.76,2.761c-1.525,0-2.761-1.236-2.761-2.761
				s1.236-2.76,2.761-2.76C338.474,135.9,339.71,137.136,339.71,138.661z"/>
			<path style="fill:#FFCB4B;" d="M328.452,138.661c0,1.525-1.236,2.761-2.761,2.761s-2.761-1.236-2.761-2.761
				s1.236-2.76,2.761-2.76S328.452,137.136,328.452,138.661z"/>
			<path style="fill:#FFFFFF;" d="M317.194,138.661c0,1.525-1.236,2.761-2.761,2.761c-1.525,0-2.76-1.236-2.76-2.761
				s1.236-2.76,2.76-2.76C315.958,135.9,317.194,137.136,317.194,138.661z"/>
			<g>
				<path style="fill:#006C7E;" d="M307.069,163.746h-90.675c-2.36,0-4.291-1.931-4.291-4.291l0,0c0-2.36,1.931-4.291,4.291-4.291
					h90.675c2.36,0,4.291,1.931,4.291,4.291l0,0C311.36,161.815,309.429,163.746,307.069,163.746z"/>
				<path style="fill:#FFFFFF;" d="M288.218,163.746h-94.967c-2.36,0-4.291-1.931-4.291-4.291l0,0c0-2.36,1.931-4.291,4.291-4.291
					h94.967V163.746z"/>
			</g>
			
				<text transform="matrix(1 0 0 1 291.0869 160.8369)" style="fill:#FFFFFF; font-family:'Quicksand-Regular'; font-size:4.2291px;">SEARCH</text>
			<path style="fill:#006C7E;" d="M218.023,240.12h-35.737c-1.474,0-2.68-1.206-2.68-2.68v-19.155c0-1.474,1.206-2.68,2.68-2.68
				h35.737c1.474,0,2.68,1.206,2.68,2.68v19.155C220.703,238.914,219.497,240.12,218.023,240.12z"/>
			<path style="fill:#9AD1E3;" d="M216.181,237.172h-32.053c-1.21,0-2.2-0.99-2.2-2.2v-14.221c0-1.21,0.99-2.2,2.2-2.2h32.053
				c1.21,0,2.2,0.99,2.2,2.2v14.221C218.381,236.182,217.391,237.172,216.181,237.172z"/>
			<path style="fill:#FFCB4B;" d="M212.071,227.862c0,3.014-2.443,5.457-5.457,5.457c-3.014,0-5.457-2.443-5.457-5.457
				c0-3.014,2.443-5.457,5.457-5.457C209.628,222.405,212.071,224.848,212.071,227.862z"/>
			<path style="fill:#FF5252;" d="M324.596,289.481h-52.376c-2.121,0-3.856-1.736-3.856-3.857v-27c0-2.121,1.735-3.856,3.856-3.856
				h52.376c2.121,0,3.856,1.735,3.856,3.856v27C328.452,287.746,326.717,289.481,324.596,289.481z"/>
			<path style="fill:#FFFFFF;" d="M314.037,270.648l-25.694-9.969c-1.038-0.403-2.158,0.363-2.158,1.477v19.938
				c0,1.114,1.119,1.88,2.158,1.477l25.694-9.969C315.386,273.079,315.386,271.171,314.037,270.648z"/>
			<path style="fill:#63A9BF;" d="M318.546,230.069h-89.224c-1.192,0-2.168-0.976-2.168-2.168v-0.078
				c0-1.192,0.976-2.168,2.168-2.168h89.224c1.192,0,2.168,0.976,2.168,2.168v0.078
				C320.714,229.093,319.739,230.069,318.546,230.069z"/>
			<path style="fill:#4A7E8F;" d="M314.62,309.797H185.7c-1.962,0-3.568-1.605-3.568-3.568l0,0c0-1.962,1.605-3.568,3.568-3.568
				h128.92c1.962,0,3.568,1.605,3.568,3.568l0,0C318.188,308.191,316.582,309.797,314.62,309.797z"/>
			<path style="fill:#63A9BF;" d="M318.546,220.018h-89.224c-1.192,0-2.168-0.976-2.168-2.168v-0.078
				c0-1.192,0.976-2.168,2.168-2.168h89.224c1.192,0,2.168,0.976,2.168,2.168v0.078
				C320.714,219.042,319.739,220.018,318.546,220.018z"/>
			<path style="fill:#63A9BF;" d="M302.403,240.12h-73.167c-1.214,0-2.207-0.993-2.207-2.207l0,0c0-1.214,0.993-2.207,2.207-2.207
				h73.167c1.214,0,2.207,0.993,2.207,2.207l0,0C304.61,239.127,303.617,240.12,302.403,240.12z"/>
		</g>
	</g>
	<g>
		<rect x="358.105" y="48.864" style="fill:#FFFFFF;" width="104.104" height="78.068"/>
		<path style="fill:#63A9BF;" d="M452.813,93.478h-85.312c-0.353,0-0.642-0.289-0.642-0.642V74.101c0-0.353,0.289-0.642,0.642-0.642
			h85.312c0.353,0,0.642,0.289,0.642,0.642v18.736C453.455,93.189,453.166,93.478,452.813,93.478z"/>
		<rect x="358.105" y="59.515" style="fill:#9AD1E3;" width="104.104" height="8.913"/>
		<rect x="358.105" y="48.864" style="fill:#006C7E;" width="104.104" height="7.215"/>
		<rect x="358.105" y="123.324" style="fill:#9AD1E3;" width="104.104" height="3.608"/>
		<path style="fill:#FF5252;" d="M459.681,52.471c0,0.843-0.684,1.527-1.527,1.527s-1.527-0.683-1.527-1.527
			c0-0.843,0.684-1.527,1.527-1.527S459.681,51.628,459.681,52.471z"/>
		<path style="fill:#FFCB4B;" d="M453.455,52.471c0,0.843-0.684,1.527-1.527,1.527s-1.527-0.683-1.527-1.527
			c0-0.843,0.684-1.527,1.527-1.527S453.455,51.628,453.455,52.471z"/>
		<path style="fill:#FFFFFF;" d="M447.229,52.471c0,0.843-0.684,1.527-1.527,1.527c-0.843,0-1.527-0.683-1.527-1.527
			c0-0.843,0.684-1.527,1.527-1.527C446.545,50.945,447.229,51.628,447.229,52.471z"/>
		<g>
			<path style="fill:#63A9BF;" d="M450.754,66.344h-64.945c-1.305,0-2.373-1.068-2.373-2.373l0,0c0-1.305,1.068-2.373,2.373-2.373
				h64.945c1.305,0,2.373,1.068,2.373,2.373l0,0C453.127,65.276,452.059,66.344,450.754,66.344z"/>
			<path style="fill:#FFFFFF;" d="M436.878,66.344H369.56c-1.305,0-2.373-1.068-2.373-2.373l0,0c0-1.305,1.068-2.373,2.373-2.373
				h67.318V66.344z"/>
		</g>
		<path style="fill:#9AD1E3;" d="M447.41,84.689h-74.403c-0.671,0-1.22-0.549-1.22-1.22l0,0c0-0.671,0.549-1.22,1.22-1.22h74.403
			c0.671,0,1.22,0.549,1.22,1.22l0,0C448.63,84.14,448.081,84.689,447.41,84.689z"/>
		<path style="fill:#9AD1E3;" d="M447.41,79.13h-74.403c-0.671,0-1.22-0.549-1.22-1.22l0,0c0-0.671,0.549-1.22,1.22-1.22h74.403
			c0.671,0,1.22,0.549,1.22,1.22l0,0C448.63,78.581,448.081,79.13,447.41,79.13z"/>
		<path style="fill:#9AD1E3;" d="M434.183,90.247h-61.279c-0.671,0-1.22-0.549-1.22-1.22l0,0c0-0.671,0.549-1.22,1.22-1.22h61.279
			c0.671,0,1.22,0.549,1.22,1.22l0,0C435.403,89.698,434.854,90.247,434.183,90.247z"/>
		
			<ellipse transform="matrix(0.2308 -0.973 0.973 0.2308 188.9227 455.8851)" style="fill:#FFCB4B;" cx="382.813" cy="108.447" rx="11.093" ry="11.093"/>
		<path style="fill:#FFFFFF;" d="M383.11,102.247l1.625,3.292c0.048,0.098,0.142,0.166,0.25,0.181l3.633,0.528
			c0.272,0.04,0.381,0.374,0.184,0.566l-2.629,2.562c-0.078,0.076-0.114,0.186-0.095,0.294l0.621,3.618
			c0.046,0.271-0.238,0.478-0.481,0.35l-3.249-1.708c-0.097-0.051-0.212-0.051-0.309,0l-3.249,1.708
			c-0.243,0.128-0.528-0.079-0.481-0.35l0.62-3.618c0.018-0.108-0.017-0.217-0.095-0.294l-2.629-2.562
			c-0.197-0.192-0.088-0.526,0.184-0.566l3.633-0.528c0.108-0.016,0.201-0.083,0.25-0.181l1.625-3.292
			C382.637,102.001,382.989,102.001,383.11,102.247z"/>
		
			<ellipse transform="matrix(0.1607 -0.987 0.987 0.1607 260.1407 522.8275)" style="fill:#FF5252;" cx="437.501" cy="108.447" rx="11.093" ry="11.093"/>
		<path style="fill:#FFFFFF;" d="M444.142,106.893c0-1.894-1.535-3.429-3.429-3.429c-1.483,0-2.734,0.946-3.212,2.263
			c-0.479-1.317-1.73-2.263-3.212-2.263c-1.894,0-3.429,1.535-3.429,3.429c0,0.949,0.386,1.807,1.009,2.428h0l5.685,6.11l5.582-6.11
			h0C443.756,108.701,444.142,107.842,444.142,106.893z"/>
		
			<ellipse transform="matrix(0.1539 -0.9881 0.9881 0.1539 239.893 497.0338)" style="fill:#9AD1E3;" cx="410.157" cy="108.447" rx="11.093" ry="11.093"/>
		<g>
			<polygon style="fill:#FFFFFF;" points="405.933,114.45 408.296,114.45 408.296,110.227 412.017,110.227 412.017,114.45 
				414.38,114.45 414.38,106.935 405.933,106.935 			"/>
			<polygon style="fill:#FFFFFF;" points="415.958,105.638 410.157,100.748 404.355,105.638 410.157,105.638 			"/>
		</g>
	</g>
	<g>
		<rect x="52.659" y="361.515" style="fill:#FFFFFF;" width="104.104" height="78.068"/>
		<path style="fill:#9AD1E3;" d="M144.547,408.705H72.833v-22.186h71.714c1.731,0,3.134,1.403,3.134,3.134v15.919
			C147.681,407.302,146.278,408.705,144.547,408.705z"/>
		<rect x="52.659" y="372.166" style="fill:#4A7E8F;" width="104.104" height="8.913"/>
		<rect x="52.659" y="361.515" style="fill:#006C7E;" width="104.104" height="7.215"/>
		<rect x="52.659" y="435.975" style="fill:#9AD1E3;" width="104.104" height="3.608"/>
		<path style="fill:#FF5252;" d="M154.235,365.123c0,0.843-0.684,1.527-1.527,1.527c-0.843,0-1.527-0.684-1.527-1.527
			c0-0.843,0.684-1.527,1.527-1.527C153.551,363.596,154.235,364.28,154.235,365.123z"/>
		<path style="fill:#FFCB4B;" d="M148.009,365.123c0,0.843-0.684,1.527-1.527,1.527s-1.527-0.684-1.527-1.527
			c0-0.843,0.683-1.527,1.527-1.527S148.009,364.28,148.009,365.123z"/>
		<path style="fill:#FFFFFF;" d="M141.783,365.123c0,0.843-0.684,1.527-1.527,1.527s-1.527-0.684-1.527-1.527
			c0-0.843,0.684-1.527,1.527-1.527S141.783,364.28,141.783,365.123z"/>
		<g>
			<path style="fill:#63A9BF;" d="M145.307,378.996H80.362c-1.305,0-2.373-1.068-2.373-2.373l0,0c0-1.305,1.068-2.373,2.373-2.373
				h64.945c1.305,0,2.373,1.068,2.373,2.373l0,0C147.681,377.928,146.613,378.996,145.307,378.996z"/>
			<path style="fill:#9AD1E3;" d="M131.432,378.996H64.113c-1.305,0-2.373-1.068-2.373-2.373l0,0c0-1.305,1.068-2.373,2.373-2.373
				h67.319V378.996z"/>
		</g>
		
			<ellipse transform="matrix(0.2287 -0.9735 0.9735 0.2287 -330.898 377.5953)" style="fill:#FFCB4B;" cx="72.834" cy="397.612" rx="11.093" ry="11.093"/>
		<path style="fill:#FFFFFF;" d="M73.131,391.412l1.625,3.292c0.048,0.098,0.142,0.166,0.25,0.181l3.633,0.528
			c0.272,0.04,0.381,0.374,0.184,0.566l-2.629,2.563c-0.078,0.076-0.114,0.186-0.095,0.293l0.62,3.618
			c0.047,0.271-0.238,0.477-0.481,0.35l-3.249-1.708c-0.097-0.051-0.212-0.051-0.309,0l-3.249,1.708
			c-0.243,0.128-0.528-0.079-0.481-0.35l0.621-3.618c0.019-0.107-0.017-0.217-0.095-0.293l-2.629-2.563
			c-0.197-0.192-0.088-0.526,0.184-0.566l3.633-0.528c0.108-0.016,0.201-0.083,0.25-0.181l1.625-3.292
			C72.658,391.165,73.009,391.165,73.131,391.412z"/>
		<path style="fill:#FFFFFF;" d="M140.007,398.653H90.732c-0.89,0-1.619-0.729-1.619-1.619l0,0c0-0.891,0.729-1.619,1.619-1.619
			h49.276c0.891,0,1.619,0.729,1.619,1.619l0,0C141.626,397.924,140.898,398.653,140.007,398.653z"/>
		<path style="fill:#FFFFFF;" d="M140.007,392.846H90.732c-0.89,0-1.619-0.728-1.619-1.619l0,0c0-0.891,0.729-1.619,1.619-1.619
			h49.276c0.891,0,1.619,0.729,1.619,1.619l0,0C141.626,392.117,140.898,392.846,140.007,392.846z"/>
		<path style="fill:#FFFFFF;" d="M140.007,404.46H90.732c-0.89,0-1.619-0.729-1.619-1.619l0,0c0-0.89,0.729-1.619,1.619-1.619
			h49.276c0.891,0,1.619,0.729,1.619,1.619l0,0C141.626,403.732,140.898,404.46,140.007,404.46z"/>
		<path style="fill:#9AD1E3;" d="M82.975,431.715H64.581c-1.562,0-2.84-1.278-2.84-2.841v-14.343c0-1.562,1.278-2.841,2.84-2.841
			h18.395c1.562,0,2.841,1.278,2.841,2.841v14.343C85.816,430.436,84.538,431.715,82.975,431.715z"/>
		<path style="fill:#9AD1E3;" d="M144.829,431.715h-18.395c-1.562,0-2.84-1.278-2.84-2.841v-14.343c0-1.562,1.278-2.841,2.84-2.841
			h18.395c1.562,0,2.841,1.278,2.841,2.841v14.343C147.67,430.436,146.392,431.715,144.829,431.715z"/>
		<path style="fill:#FF5252;" d="M113.908,431.715H95.513c-1.562,0-2.84-1.278-2.84-2.841v-14.343c0-1.562,1.278-2.841,2.84-2.841
			h18.395c1.562,0,2.841,1.278,2.841,2.841v14.343C116.748,430.436,115.47,431.715,113.908,431.715z"/>
	</g>
	<g>
		<rect x="198.108" y="41.007" style="fill:#FFFFFF;" width="104.104" height="54.658"/>
		<path style="fill:#9AD1E3;" d="M292.816,85.622h-85.312c-0.353,0-0.642-0.289-0.642-0.642V66.244c0-0.353,0.289-0.642,0.642-0.642
			h85.312c0.353,0,0.642,0.289,0.642,0.642V84.98C293.458,85.333,293.169,85.622,292.816,85.622z"/>
		<rect x="198.108" y="51.658" style="fill:#FFCB4B;" width="104.104" height="8.913"/>
		<rect x="198.108" y="41.007" style="fill:#006C7E;" width="104.104" height="7.215"/>
		<rect x="198.108" y="92.058" style="fill:#006C7E;" width="104.104" height="3.608"/>
		<path style="fill:#FF5252;" d="M299.684,44.615c0,0.843-0.683,1.527-1.527,1.527c-0.843,0-1.527-0.683-1.527-1.527
			c0-0.843,0.684-1.527,1.527-1.527C299.001,43.088,299.684,43.772,299.684,44.615z"/>
		<circle style="fill:#FFCB4B;" cx="291.932" cy="44.615" r="1.527"/>
		<circle style="fill:#FFFFFF;" cx="285.706" cy="44.615" r="1.527"/>
		<g>
			<path style="fill:#BA9437;" d="M290.757,58.488h-64.945c-1.305,0-2.373-1.068-2.373-2.373l0,0c0-1.305,1.068-2.373,2.373-2.373
				h64.945c1.305,0,2.373,1.068,2.373,2.373l0,0C293.13,57.42,292.062,58.488,290.757,58.488z"/>
			<path style="fill:#FFFFFF;" d="M276.882,58.488h-67.318c-1.305,0-2.373-1.068-2.373-2.373l0,0c0-1.305,1.068-2.373,2.373-2.373
				h67.318V58.488z"/>
		</g>
		<path style="fill:#FFFFFF;" d="M287.413,76.832H213.01c-0.671,0-1.22-0.549-1.22-1.22l0,0c0-0.671,0.549-1.22,1.22-1.22h74.403
			c0.671,0,1.22,0.549,1.22,1.22l0,0C288.633,76.283,288.084,76.832,287.413,76.832z"/>
		<path style="fill:#FFFFFF;" d="M287.413,71.274H213.01c-0.671,0-1.22-0.549-1.22-1.22l0,0c0-0.671,0.549-1.22,1.22-1.22h74.403
			c0.671,0,1.22,0.549,1.22,1.22l0,0C288.633,70.725,288.084,71.274,287.413,71.274z"/>
		<path style="fill:#FFFFFF;" d="M274.186,82.391h-61.279c-0.671,0-1.221-0.549-1.221-1.22l0,0c0-0.671,0.549-1.22,1.221-1.22
			h61.279c0.671,0,1.22,0.549,1.22,1.22l0,0C275.406,81.842,274.857,82.391,274.186,82.391z"/>
	</g>
	<g>
		<rect x="42.009" y="43.945" style="fill:#C4E5F0;" width="104.104" height="70.918"/>
		<path style="fill:#9AD1E3;" d="M135.003,86.696H53.118c-1.296,0-2.356-1.06-2.356-2.356V69.031c0-1.296,1.06-2.356,2.356-2.356
			h81.885c1.296,0,2.356,1.06,2.356,2.356V84.34C137.359,85.635,136.299,86.696,135.003,86.696z"/>
		<path style="fill:#FFFFFF;" d="M135.917,93.501H52.205c-0.793,0-1.443-0.649-1.443-1.443l0,0c0-0.793,0.649-1.442,1.443-1.442
			h83.711c0.793,0,1.443,0.649,1.443,1.442l0,0C137.359,92.851,136.71,93.501,135.917,93.501z"/>
		<path style="fill:#FFFFFF;" d="M135.917,100.001H52.205c-0.793,0-1.443-0.649-1.443-1.443l0,0c0-0.793,0.649-1.443,1.443-1.443
			h83.711c0.793,0,1.443,0.649,1.443,1.443l0,0C137.359,99.352,136.71,100.001,135.917,100.001z"/>
		<path style="fill:#FFFFFF;" d="M128.084,106.501H60.038c-0.793,0-1.443-0.649-1.443-1.443l0,0c0-0.793,0.649-1.442,1.443-1.442
			h68.046c0.793,0,1.443,0.649,1.443,1.442l0,0C129.526,105.852,128.877,106.501,128.084,106.501z"/>
		<rect x="42.009" y="54.596" style="fill:#63A9BF;" width="104.104" height="8.913"/>
		<rect x="42.009" y="43.945" style="fill:#006C7E;" width="104.104" height="7.215"/>
		<rect x="42.009" y="111.256" style="fill:#9AD1E3;" width="104.104" height="3.608"/>
		<circle style="fill:#FF5252;" cx="142.058" cy="47.552" r="1.527"/>
		<circle style="fill:#FFCB4B;" cx="135.832" cy="47.552" r="1.527"/>
		<path style="fill:#FFFFFF;" d="M131.133,47.552c0,0.843-0.684,1.527-1.527,1.527c-0.843,0-1.527-0.684-1.527-1.527
			c0-0.843,0.684-1.527,1.527-1.527C130.45,46.026,131.133,46.709,131.133,47.552z"/>
	</g>
	<g>
		<rect x="336.949" y="349.726" style="fill:#FFFFFF;" width="128.695" height="97.919"/>
		<path style="fill:#C4E5F0;" d="M454.535,392.477H348.059c-1.296,0-2.356-1.06-2.356-2.356v-15.308c0-1.296,1.06-2.356,2.356-2.356
			h106.476c1.296,0,2.356,1.06,2.356,2.356v15.308C456.89,391.417,455.83,392.477,454.535,392.477z"/>
		<path style="fill:#C4E5F0;" d="M455.448,400.214H347.146c-0.793,0-1.443-0.649-1.443-1.443l0,0c0-0.793,0.649-1.443,1.443-1.443
			h108.302c0.793,0,1.443,0.649,1.443,1.443l0,0C456.89,399.565,456.241,400.214,455.448,400.214z"/>
		<path style="fill:#63A9BF;" d="M455.448,406.714H347.146c-0.793,0-1.443-0.649-1.443-1.443l0,0c0-0.793,0.649-1.443,1.443-1.443
			h108.302c0.793,0,1.443,0.649,1.443,1.443l0,0C456.89,406.065,456.241,406.714,455.448,406.714z"/>
		<path style="fill:#C4E5F0;" d="M447.615,413.214h-92.636c-0.793,0-1.442-0.649-1.442-1.443l0,0c0-0.793,0.649-1.443,1.442-1.443
			h92.636c0.793,0,1.443,0.649,1.443,1.443l0,0C449.057,412.565,448.408,413.214,447.615,413.214z"/>
		<rect x="336.949" y="360.377" style="fill:#C4E5F0;" width="128.695" height="8.913"/>
		<rect x="336.949" y="349.726" style="fill:#006C7E;" width="128.695" height="7.215"/>
		<rect x="336.949" y="444.037" style="fill:#006C7E;" width="128.695" height="3.608"/>
		<circle style="fill:#FF5252;" cx="461.59" cy="353.334" r="1.527"/>
		<circle style="fill:#FFCB4B;" cx="455.364" cy="353.334" r="1.527"/>
		<circle style="fill:#FFFFFF;" cx="449.138" cy="353.334" r="1.527"/>
		<path style="fill:#63A9BF;" d="M377.905,439.044h-30.124c-1.046,0-1.895-0.848-1.895-1.895v-15.81
			c0-1.047,0.848-1.895,1.895-1.895h30.124c1.047,0,1.895,0.848,1.895,1.895v15.81C379.8,438.196,378.952,439.044,377.905,439.044z"
			/>
		<path style="fill:#C4E5F0;" d="M375.184,427.498h-24.682c-0.793,0-1.443-0.649-1.443-1.443l0,0c0-0.793,0.649-1.443,1.443-1.443
			h24.682c0.793,0,1.443,0.649,1.443,1.443l0,0C376.627,426.849,375.978,427.498,375.184,427.498z"/>
		<path style="fill:#C4E5F0;" d="M375.184,433.876h-24.682c-0.793,0-1.443-0.649-1.443-1.443l0,0c0-0.793,0.649-1.443,1.443-1.443
			h24.682c0.793,0,1.443,0.649,1.443,1.443l0,0C376.627,433.227,375.978,433.876,375.184,433.876z"/>
		<path style="fill:#63A9BF;" d="M416.359,439.044h-30.124c-1.047,0-1.895-0.848-1.895-1.895v-15.81
			c0-1.047,0.848-1.895,1.895-1.895h30.124c1.046,0,1.895,0.848,1.895,1.895v15.81C418.254,438.196,417.405,439.044,416.359,439.044
			z"/>
		<path style="fill:#C4E5F0;" d="M413.638,427.498h-24.682c-0.793,0-1.443-0.649-1.443-1.443l0,0c0-0.793,0.649-1.443,1.443-1.443
			h24.682c0.793,0,1.443,0.649,1.443,1.443l0,0C415.08,426.849,414.431,427.498,413.638,427.498z"/>
		<path style="fill:#C4E5F0;" d="M413.638,433.876h-24.682c-0.793,0-1.443-0.649-1.443-1.443l0,0c0-0.793,0.649-1.443,1.443-1.443
			h24.682c0.793,0,1.443,0.649,1.443,1.443l0,0C415.08,433.227,414.431,433.876,413.638,433.876z"/>
		<path style="fill:#63A9BF;" d="M454.97,439.044h-30.124c-1.047,0-1.895-0.848-1.895-1.895v-15.81c0-1.047,0.848-1.895,1.895-1.895
			h30.124c1.046,0,1.895,0.848,1.895,1.895v15.81C456.865,438.196,456.016,439.044,454.97,439.044z"/>
		<path style="fill:#C4E5F0;" d="M452.249,427.498h-24.682c-0.793,0-1.442-0.649-1.442-1.443l0,0c0-0.793,0.649-1.443,1.442-1.443
			h24.682c0.793,0,1.443,0.649,1.443,1.443l0,0C453.692,426.849,453.042,427.498,452.249,427.498z"/>
		<path style="fill:#C4E5F0;" d="M452.249,433.876h-24.682c-0.793,0-1.442-0.649-1.442-1.443l0,0c0-0.793,0.649-1.443,1.442-1.443
			h24.682c0.793,0,1.443,0.649,1.443,1.443l0,0C453.692,433.227,453.042,433.876,452.249,433.876z"/>
	</g>
	<g>
		<rect x="39.053" y="208.062" style="fill:#FFFFFF;" width="63.349" height="100.404"/>
		
			<ellipse transform="matrix(0.236 -0.9718 0.9718 0.236 -197.4022 266.4232)" style="fill:#FF5252;" cx="70.728" cy="258.747" rx="25.78" ry="25.78"/>
		<path style="fill:#FFFFFF;" d="M83.583,257.484l-20.385-10.023c-0.935-0.46-2.029,0.221-2.029,1.263v20.046
			c0,1.042,1.093,1.723,2.029,1.263l20.385-10.023C84.632,259.495,84.632,258,83.583,257.484z"/>
		<path style="fill:#63A9BF;" d="M92.206,293.604H49.249c-0.793,0-1.442-0.649-1.442-1.443l0,0c0-0.793,0.649-1.443,1.442-1.443
			h42.957c0.793,0,1.443,0.649,1.443,1.443l0,0C93.649,292.955,93,293.604,92.206,293.604z"/>
		<path style="fill:#9AD1E3;" d="M84.373,300.104H57.082c-0.793,0-1.442-0.649-1.442-1.442l0,0c0-0.793,0.649-1.443,1.442-1.443
			h27.291c0.793,0,1.443,0.649,1.443,1.443l0,0C85.816,299.455,85.167,300.104,84.373,300.104z"/>
		<rect x="39.053" y="218.713" style="fill:#9AD1E3;" width="63.349" height="8.913"/>
		<rect x="39.053" y="208.062" style="fill:#006C7E;" width="63.349" height="7.215"/>
		<rect x="39.053" y="304.859" style="fill:#63A9BF;" width="63.349" height="3.608"/>
		<circle style="fill:#FF5252;" cx="98.348" cy="211.67" r="1.527"/>
		<circle style="fill:#FFCB4B;" cx="92.122" cy="211.67" r="1.527"/>
		<circle style="fill:#FFFFFF;" cx="85.896" cy="211.67" r="1.527"/>
	</g>
	<g>
		<rect x="398.392" y="199.603" style="fill:#C4E5F0;" width="63.349" height="83.683"/>
		<path style="fill:#006C7E;" d="M451.545,268.423h-42.957c-0.793,0-1.443-0.649-1.443-1.443l0,0c0-0.793,0.649-1.442,1.443-1.442
			h42.957c0.793,0,1.443,0.649,1.443,1.442l0,0C452.988,267.774,452.338,268.423,451.545,268.423z"/>
		<path style="fill:#63A9BF;" d="M443.712,274.924h-27.291c-0.793,0-1.442-0.649-1.442-1.443l0,0c0-0.793,0.649-1.443,1.442-1.443
			h27.291c0.793,0,1.443,0.649,1.443,1.443l0,0C445.155,274.275,444.505,274.924,443.712,274.924z"/>
		<path style="fill:#63A9BF;" d="M448.531,220.099h-36.929c-2.461,0-4.456-1.995-4.456-4.456l0,0c0-2.461,1.995-4.456,4.456-4.456
			h36.929c2.461,0,4.456,1.995,4.456,4.456l0,0C452.988,218.104,450.992,220.099,448.531,220.099z"/>
		<path style="fill:#FFFFFF;" d="M450.043,260.078h-39.952c-1.626,0-2.945-1.318-2.945-2.945v-29.137
			c0-1.627,1.318-2.945,2.945-2.945h39.952c1.626,0,2.945,1.318,2.945,2.945v29.137
			C452.988,258.759,451.669,260.078,450.043,260.078z"/>
		<path style="fill:#C4E5F0;" d="M447.391,232.846h-34.648c-0.793,0-1.443-0.649-1.443-1.443l0,0c0-0.793,0.649-1.443,1.443-1.443
			h34.648c0.793,0,1.443,0.649,1.443,1.443l0,0C448.833,232.197,448.184,232.846,447.391,232.846z"/>
		<path style="fill:#C4E5F0;" d="M447.391,240.144h-34.648c-0.793,0-1.443-0.649-1.443-1.442l0,0c0-0.793,0.649-1.443,1.443-1.443
			h34.648c0.793,0,1.443,0.649,1.443,1.443l0,0C448.833,239.495,448.184,240.144,447.391,240.144z"/>
		<path style="fill:#C4E5F0;" d="M447.391,247.442h-34.648c-0.793,0-1.443-0.649-1.443-1.443l0,0c0-0.793,0.649-1.443,1.443-1.443
			h34.648c0.793,0,1.443,0.649,1.443,1.443l0,0C448.833,246.793,448.184,247.442,447.391,247.442z"/>
		<path style="fill:#C4E5F0;" d="M447.391,254.74h-34.648c-0.793,0-1.443-0.649-1.443-1.442l0,0c0-0.793,0.649-1.443,1.443-1.443
			h34.648c0.793,0,1.443,0.649,1.443,1.443l0,0C448.833,254.091,448.184,254.74,447.391,254.74z"/>
		<rect x="398.392" y="199.603" style="fill:#006C7E;" width="63.349" height="7.215"/>
		<rect x="398.392" y="279.678" style="fill:#006C7E;" width="63.349" height="3.608"/>
		<path style="fill:#FF5252;" d="M459.214,203.211c0,0.843-0.684,1.527-1.527,1.527c-0.843,0-1.527-0.684-1.527-1.527
			c0-0.843,0.684-1.527,1.527-1.527C458.53,201.684,459.214,202.367,459.214,203.211z"/>
		<path style="fill:#FFCB4B;" d="M452.988,203.211c0,0.843-0.684,1.527-1.527,1.527c-0.843,0-1.527-0.684-1.527-1.527
			c0-0.843,0.684-1.527,1.527-1.527C452.304,201.684,452.988,202.367,452.988,203.211z"/>
		<path style="fill:#FFFFFF;" d="M446.762,203.211c0,0.843-0.684,1.527-1.527,1.527s-1.527-0.684-1.527-1.527
			c0-0.843,0.684-1.527,1.527-1.527S446.762,202.367,446.762,203.211z"/>
	</g>
</g>
<g id="DESIGNED_BY_FREEPIK">
	<g>
		<g id="XMLID_319_">
			<g id="XMLID_338_">
				<path id="XMLID_346_" style="fill:#F9FBFC;" d="M260.104,470.394c-0.432,0.443-0.803,0.931-1.108,1.453l-0.465-0.241
					c-0.067-0.298-0.349-0.503-0.659-0.466c-0.331,0.039-0.568,0.339-0.529,0.67c0.039,0.331,0.339,0.568,0.67,0.529
					c0.066-0.008,0.127-0.026,0.184-0.052l0.451,0.234c-0.251,0.554-0.433,1.139-0.539,1.744l0.746,0.132
					c0.23-1.306,0.85-2.507,1.792-3.473L260.104,470.394z"/>
				<path id="XMLID_345_" style="fill:#F9FBFC;" d="M265.592,468.092c-0.171,0-0.341,0.006-0.51,0.017l-0.074-0.626
					c0.188-0.149,0.296-0.389,0.266-0.645c-0.046-0.393-0.402-0.674-0.795-0.628c-0.393,0.046-0.674,0.402-0.628,0.795
					c0.03,0.254,0.189,0.461,0.404,0.564l0.074,0.624c-0.714,0.116-1.403,0.332-2.06,0.646l0.327,0.684
					c0.934-0.447,1.942-0.673,2.995-0.673c0.496,0,0.993,0.053,1.475,0.158l0.161-0.741
					C266.692,468.151,266.142,468.092,265.592,468.092z"/>
				<path id="XMLID_344_" style="fill:#F9FBFC;" d="M272.194,470.639c0.331-0.04,0.566-0.341,0.526-0.672
					c-0.04-0.331-0.341-0.566-0.672-0.526c-0.309,0.038-0.535,0.304-0.53,0.609l-0.416,0.363c-0.418-0.43-0.889-0.813-1.408-1.139
					l-0.404,0.641c1.134,0.715,2.021,1.726,2.563,2.925l0.69-0.313c-0.251-0.554-0.568-1.072-0.942-1.545l0.402-0.351
					C272.065,470.644,272.129,470.647,272.194,470.639z"/>
				<path id="XMLID_343_" style="fill:#F9FBFC;" d="M265.044,478.3c-0.386,0.023-0.775,0.035-1.157,0.035
					c-0.88,0-1.733-0.061-2.478-0.179c-0.39-0.062-0.846-0.155-1.27-0.292c1.046,1.861,3.069,3.125,5.388,3.125
					c2.855,0,5.262-1.916,5.95-4.504c-0.682,0.449-1.505,0.825-2.459,1.123C267.839,477.976,266.463,478.215,265.044,478.3z"/>
				<path id="XMLID_339_" style="fill:#F9FBFC;" d="M265.592,469.608c-3.352,0-6.08,2.666-6.08,5.944
					c0,0.426,0.046,0.849,0.137,1.261c0.673,0.483,2.706,0.89,5.348,0.731c2.879-0.173,5.297-0.957,6.672-2.159
					c-0.006-0.195-0.021-0.39-0.045-0.582C271.244,471.842,268.65,469.608,265.592,469.608z M263.432,476.123
					c-1.02,0-1.85-0.83-1.85-1.85c0-1.02,0.83-1.85,1.85-1.85c1.02,0,1.85,0.83,1.85,1.85
					C265.282,475.293,264.452,476.123,263.432,476.123z M268.17,475.215c-0.75,0-1.36-0.61-1.36-1.36c0-0.75,0.61-1.361,1.36-1.361
					c0.75,0,1.361,0.61,1.361,1.361C269.53,474.605,268.92,475.215,268.17,475.215z"/>
			</g>
			<path id="XMLID_336_" style="fill:#F9FBFC;" d="M281.595,471.475c-0.295-0.116-0.805-0.309-1.382-0.237
				c-0.551,0.068-0.844,0.34-0.844,1.007v0.866h2.228v1.717h-2.228v5.455h-1.932v-5.455h-1.34v-1.717h1.34v-0.888
				c0-1.68,0.896-2.783,2.568-2.783c0.643,0,1.157,0.122,1.59,0.308L281.595,471.475z"/>
			<path id="XMLID_334_" style="fill:#F9FBFC;" d="M286.298,474.807c-0.177-0.03-0.358-0.046-0.526-0.046
				c-0.895,0-1.51,0.548-1.51,1.613v3.908h-1.932v-7.172h1.873v0.785c0.451-0.674,1.14-0.977,2.021-0.977
				c0.414,0,0.848,0.128,1.094,0.337L286.298,474.807z"/>
			<path id="XMLID_331_" style="fill:#F9FBFC;" d="M293.965,476.685c0,0.222-0.015,0.489-0.037,0.651h-5.085
				c0.207,1.036,0.933,1.488,1.843,1.488c0.622,0,1.295-0.252,1.813-0.688l1.133,1.243c-0.814,0.748-1.85,1.088-3.057,1.088
				c-2.198,0-3.723-1.495-3.723-3.753c0-2.257,1.48-3.797,3.627-3.797C292.544,472.918,293.958,474.45,293.965,476.685z
				 M288.851,476.019h3.175c-0.177-0.918-0.733-1.436-1.562-1.436C289.554,474.583,289.021,475.131,288.851,476.019z"/>
			<path id="XMLID_328_" style="fill:#F9FBFC;" d="M301.618,476.685c0,0.222-0.015,0.489-0.037,0.651h-5.085
				c0.207,1.036,0.932,1.488,1.843,1.488c0.622,0,1.295-0.252,1.814-0.688l1.132,1.243c-0.814,0.748-1.85,1.088-3.057,1.088
				c-2.198,0-3.723-1.495-3.723-3.753c0-2.257,1.48-3.797,3.627-3.797C300.197,472.918,301.611,474.45,301.618,476.685z
				 M296.504,476.019h3.175c-0.178-0.918-0.733-1.436-1.562-1.436C297.207,474.583,296.674,475.131,296.504,476.019z"/>
			<path id="XMLID_325_" style="fill:#F9FBFC;" d="M309.964,476.693c0,2.154-1.495,3.775-3.471,3.775
				c-0.962,0-1.643-0.378-2.109-0.933v3.708h-1.924v-10.133h1.887v0.792c0.466-0.585,1.155-0.984,2.139-0.984
				C308.469,472.918,309.964,474.539,309.964,476.693z M304.287,476.693c0,1.132,0.747,1.976,1.843,1.976
				c1.14,0,1.85-0.881,1.85-1.976c0-1.095-0.711-1.976-1.85-1.976C305.035,474.717,304.287,475.56,304.287,476.693z"/>
			<path id="XMLID_322_" style="fill:#F9FBFC;" d="M313.067,470.764c0,0.696-0.54,1.229-1.236,1.229
				c-0.696,0-1.229-0.533-1.229-1.229c0-0.696,0.533-1.243,1.229-1.243C312.527,469.521,313.067,470.069,313.067,470.764z
				 M312.809,480.283h-1.932v-7.172h1.932V480.283z"/>
			<path id="XMLID_320_" style="fill:#F9FBFC;" d="M316.032,475.664l2.702-2.554h2.368l-3.479,3.375l3.501,3.797h-2.376
				l-2.716-2.901v2.901H314.1v-10.658h1.932V475.664z"/>
		</g>
		<g>
			<path style="fill:#F9FBFC;" d="M184.412,480.217v-1.055c-0.527,0.718-1.391,1.23-2.387,1.23c-1.846,0-3.149-1.406-3.149-3.706
				c0-2.256,1.289-3.721,3.149-3.721c0.952,0,1.816,0.469,2.387,1.245v-3.765h1.099v9.77H184.412z M184.412,478.299v-3.208
				c-0.395-0.615-1.245-1.143-2.124-1.143c-1.421,0-2.27,1.172-2.27,2.739c0,1.567,0.85,2.724,2.27,2.724
				C183.168,479.412,184.017,478.914,184.412,478.299z"/>
			<path style="fill:#F9FBFC;" d="M186.932,476.673c0-2.051,1.465-3.706,3.486-3.706c2.139,0,3.398,1.67,3.398,3.794v0.279h-5.727
				c0.088,1.333,1.025,2.446,2.549,2.446c0.805,0,1.626-0.322,2.182-0.893l0.527,0.718c-0.703,0.703-1.655,1.084-2.812,1.084
				C188.44,480.393,186.932,478.885,186.932,476.673z M190.403,473.875c-1.509,0-2.256,1.274-2.314,2.358h4.643
				C192.718,475.179,192.015,473.875,190.403,473.875z"/>
			<path style="fill:#F9FBFC;" d="M194.607,479.28l0.571-0.791c0.469,0.542,1.362,1.011,2.329,1.011c1.084,0,1.67-0.513,1.67-1.216
				c0-1.714-4.38-0.659-4.38-3.281c0-1.098,0.952-2.036,2.636-2.036c1.201,0,2.051,0.454,2.622,1.026l-0.513,0.762
				c-0.424-0.513-1.201-0.894-2.109-0.894c-0.967,0-1.567,0.483-1.567,1.113c0,1.553,4.38,0.527,4.38,3.281
				c0,1.187-0.952,2.139-2.783,2.139C196.306,480.393,195.325,480.042,194.607,479.28z"/>
			<path style="fill:#F9FBFC;" d="M201.477,471.4c0-0.41,0.337-0.747,0.732-0.747c0.41,0,0.747,0.337,0.747,0.747
				c0,0.41-0.337,0.732-0.747,0.732C201.814,472.132,201.477,471.81,201.477,471.4z M201.667,480.217v-7.075h1.099v7.075H201.667z"
				/>
			<path style="fill:#F9FBFC;" d="M204.582,482.034l0.556-0.82c0.586,0.703,1.289,0.967,2.3,0.967c1.172,0,2.27-0.571,2.27-2.124
				v-1.011c-0.513,0.718-1.377,1.26-2.373,1.26c-1.845,0-3.149-1.377-3.149-3.662c0-2.27,1.289-3.677,3.149-3.677
				c0.952,0,1.802,0.469,2.373,1.245v-1.069h1.098v6.87c0,2.344-1.641,3.076-3.369,3.076
				C206.237,483.089,205.417,482.854,204.582,482.034z M209.709,478.182v-3.091c-0.381-0.615-1.23-1.143-2.109-1.143
				c-1.421,0-2.27,1.128-2.27,2.695c0,1.553,0.849,2.695,2.27,2.695C208.478,479.339,209.328,478.797,209.709,478.182z"/>
			<path style="fill:#F9FBFC;" d="M217.413,480.217v-4.629c0-1.245-0.63-1.641-1.582-1.641c-0.865,0-1.685,0.527-2.095,1.099v5.17
				h-1.099v-7.075h1.099v1.025c0.498-0.586,1.465-1.201,2.519-1.201c1.48,0,2.256,0.747,2.256,2.285v4.966H217.413z"/>
			<path style="fill:#F9FBFC;" d="M219.932,476.673c0-2.051,1.465-3.706,3.486-3.706c2.139,0,3.398,1.67,3.398,3.794v0.279h-5.727
				c0.088,1.333,1.025,2.446,2.549,2.446c0.806,0,1.626-0.322,2.183-0.893l0.527,0.718c-0.703,0.703-1.655,1.084-2.812,1.084
				C221.441,480.393,219.932,478.885,219.932,476.673z M223.404,473.875c-1.509,0-2.256,1.274-2.314,2.358h4.643
				C225.718,475.179,225.015,473.875,223.404,473.875z"/>
			<path style="fill:#F9FBFC;" d="M233.35,480.217v-1.055c-0.527,0.718-1.392,1.23-2.388,1.23c-1.846,0-3.149-1.406-3.149-3.706
				c0-2.256,1.289-3.721,3.149-3.721c0.952,0,1.817,0.469,2.388,1.245v-3.765h1.098v9.77H233.35z M233.35,478.299v-3.208
				c-0.396-0.615-1.245-1.143-2.124-1.143c-1.421,0-2.27,1.172-2.27,2.739c0,1.567,0.849,2.724,2.27,2.724
				C232.105,479.412,232.954,478.914,233.35,478.299z"/>
			<path style="fill:#F9FBFC;" d="M239.692,480.217v-9.77h1.098v3.765c0.572-0.776,1.421-1.245,2.388-1.245
				c1.845,0,3.149,1.465,3.149,3.721c0,2.299-1.304,3.706-3.149,3.706c-0.996,0-1.86-0.513-2.388-1.23v1.055H239.692z
				 M242.9,479.412c1.436,0,2.285-1.157,2.285-2.724c0-1.568-0.85-2.739-2.285-2.739c-0.864,0-1.728,0.527-2.109,1.143v3.208
				C241.171,478.914,242.036,479.412,242.9,479.412z"/>
			<path style="fill:#F9FBFC;" d="M247.528,481.99c0.161,0.073,0.425,0.117,0.601,0.117c0.483,0,0.805-0.161,1.055-0.747
				l0.469-1.069l-2.959-7.148h1.187l2.358,5.801l2.344-5.801h1.201l-3.545,8.51c-0.425,1.025-1.143,1.421-2.08,1.435
				c-0.234,0-0.601-0.044-0.806-0.103L247.528,481.99z"/>
		</g>
	</g>
</g>
</svg>
